<svg width="26" height="26" viewBox="0 0 26 26" fill="inherit" xmlns="http://www.w3.org/2000/svg">
  <path
    d="M22.2696 15.4267C21.8751 15.6982 21.3617 15.7321 20.9333 15.5158C20.4411 15.2358 20.1739 14.5824 20.1739 13.6958V10.9679C20.1739 9.65697 19.6563 8.72788 18.7866 8.47334C17.323 8.04485 16.2284 9.8394 15.8084 10.5139L13.2163 14.7097V9.5891C13.1866 8.4097 12.8048 7.70122 12.0751 7.4891C11.5957 7.3491 10.8745 7.40425 10.1745 8.47334L4.37932 17.777C3.6072 16.3049 3.20417 14.663 3.21266 13C3.21266 7.39152 7.69266 2.83091 13.2163 2.83091C18.7399 2.83091 23.2327 7.39152 23.2327 13V13.0297C23.2327 13.0297 23.2327 13.0509 23.2327 13.0594C23.2878 14.1412 22.9357 15.0067 22.2696 15.4267ZM25.4727 13V12.9449C25.426 6.11455 19.9448 0.569702 13.2163 0.569702C6.48781 0.569702 0.972656 6.14425 0.972656 13C0.972656 19.8558 6.46235 25.4303 13.2163 25.4303C16.3133 25.4303 19.2914 24.2424 21.5399 22.1127C21.9939 21.6842 22.0193 20.9715 21.5993 20.5133C21.1921 20.0636 20.5005 20.0297 20.0466 20.437L20.0424 20.4412C16.0757 24.2042 9.80963 24.0388 6.0466 20.0721C5.95326 19.9746 5.86417 19.877 5.77508 19.7752L10.989 11.3879V15.257C10.989 17.1152 11.7102 17.7176 12.3127 17.8958C12.9151 18.0739 13.8442 17.9509 14.8114 16.377L17.6963 11.7103C17.7854 11.5618 17.8702 11.4303 17.9508 11.32V13.6915C17.9508 15.4309 18.6466 16.8182 19.8727 17.5055C21.0054 18.1164 22.3799 18.0612 23.4617 17.3612C24.8066 16.4873 25.5405 14.9049 25.4642 13H25.4727Z"
    fill="inherit" />
</svg>
