<svg width="24" height="24" viewBox="0 0 24 24" fill="inherit" xmlns="http://www.w3.org/2000/svg">
  <path
    d="M21.6843 2.97208C21.4762 2.79576 21.2242 2.67912 20.9551 2.63455C20.6861 2.58998 20.41 2.61915 20.1561 2.71895L2.84988 9.51583C2.54633 9.63148 2.28922 9.84371 2.11812 10.1198C1.94703 10.396 1.87144 10.7207 1.90301 11.044C1.93117 11.3671 2.06333 11.6725 2.27969 11.9142C2.49604 12.1559 2.78492 12.3209 3.10301 12.3846L7.49988 13.2565V18.7502C7.49972 19.0474 7.58786 19.338 7.7531 19.585C7.91835 19.832 8.15325 20.0244 8.42801 20.1377C8.60985 20.2109 8.80387 20.2491 8.99988 20.2502C9.19689 20.2509 9.39206 20.2123 9.57396 20.1366C9.75587 20.061 9.92085 19.9498 10.0593 19.8096L12.4968 17.3815L16.1811 20.6252C16.4531 20.8651 16.8028 20.9983 17.1655 21.0002C17.325 21.0035 17.4838 20.9781 17.6343 20.9252C17.8817 20.8469 18.1043 20.7054 18.2803 20.5147C18.4562 20.324 18.5793 20.0906 18.6374 19.8377L22.1624 4.44395C22.224 4.17833 22.212 3.90093 22.1278 3.6416C22.0436 3.38226 21.8902 3.15079 21.6843 2.97208ZM8.07176 11.8408L3.40301 10.9127L16.4905 5.76583L8.07176 11.8408ZM8.99988 18.7502V14.3065L11.3624 16.3877L8.99988 18.7502ZM17.1749 19.5002L9.44988 12.7033L20.578 4.66895L17.1749 19.5002Z"
    fill="inherit" />
</svg>
