<svg width="24" height="24" viewBox="0 0 24 24" fill="inherit" xmlns="http://www.w3.org/2000/svg">
  <path fill-rule="evenodd" clip-rule="evenodd"
    d="M11.573 7.51345C11.573 4.75025 13.813 2.51025 16.5762 2.51025C18.1986 2.51025 19.493 3.27665 20.3602 4.39025C21.2774 4.20224 22.1568 3.86208 22.9618 3.38385C22.6501 4.35378 21.9975 5.17795 21.125 5.70385L21.1282 5.70865C21.9565 5.60857 22.7654 5.38587 23.5282 5.04785L23.5266 5.05105C22.9874 5.85905 22.3106 6.57105 21.5298 7.15185C21.5714 7.43505 21.5938 7.71825 21.5938 7.99985C21.5938 13.8991 17.0994 20.7599 8.83378 20.7599C6.39651 20.762 4.01019 20.0621 1.96018 18.7439C1.86367 18.6819 1.7816 18.5999 1.71954 18.5035C1.65748 18.4071 1.61688 18.2984 1.6005 18.1849C1.58411 18.0714 1.59231 17.9557 1.62456 17.8457C1.6568 17.7356 1.71233 17.6338 1.78738 17.5471C1.85875 17.4284 1.96281 17.3328 2.08711 17.2718C2.21141 17.2108 2.35066 17.1869 2.48818 17.2031C3.95378 17.3759 5.41618 17.1967 6.70738 16.6335C6.07051 16.3521 5.50036 15.9392 5.03434 15.4219C4.56833 14.9046 4.21698 14.2945 4.00338 13.6319C3.96388 13.5086 3.95835 13.377 3.98735 13.2508C4.01635 13.1247 4.07882 13.0087 4.16818 12.9151C3.64235 12.4536 3.22117 11.8851 2.93282 11.2477C2.64446 10.6103 2.4956 9.91865 2.49618 9.21905V9.16465C2.49614 8.99727 2.55443 8.8351 2.66101 8.70603C2.76759 8.57697 2.91581 8.48907 3.08018 8.45745C2.71743 7.75741 2.52864 6.9803 2.52978 6.19185C2.52978 5.44305 2.53458 4.49905 3.06098 3.64785C3.11722 3.55768 3.19273 3.48107 3.28208 3.42353C3.37143 3.36599 3.47242 3.32895 3.57778 3.31505C3.73056 3.26687 3.89429 3.26566 4.04776 3.31159C4.20123 3.35752 4.33738 3.44847 4.43858 3.57265C6.22214 5.76672 8.77313 7.20065 11.5746 7.58385V7.51345H11.573ZM8.83378 19.1599C7.60961 19.1608 6.39372 18.9591 5.23538 18.5631C6.62864 18.3332 7.9428 17.7603 9.05938 16.8959C9.1764 16.8041 9.26212 16.6783 9.30477 16.5358C9.34742 16.3933 9.34489 16.2411 9.29754 16.1001C9.2502 15.9591 9.16035 15.8363 9.04035 15.7484C8.92035 15.6606 8.77609 15.612 8.62738 15.6095C8.09172 15.5998 7.56553 15.4666 7.08984 15.2201C6.61414 14.9737 6.20181 14.6207 5.88498 14.1887C6.18898 14.1647 6.48658 14.1119 6.77458 14.0351C6.93158 13.9931 7.06975 13.8992 7.16665 13.7688C7.26354 13.6383 7.31345 13.4789 7.30826 13.3165C7.30307 13.1541 7.24308 12.9982 7.13805 12.8742C7.03302 12.7501 6.88913 12.6653 6.72978 12.6335C6.12107 12.5101 5.55633 12.2265 5.09391 11.8119C4.63148 11.3973 4.28815 10.8667 4.09938 10.2751C4.41938 10.3519 4.75378 10.3983 5.09618 10.4095C5.25265 10.4147 5.40657 10.3688 5.53463 10.2788C5.66268 10.1887 5.75789 10.0593 5.80582 9.91029C5.85375 9.76125 5.8518 9.60065 5.80025 9.45282C5.74871 9.30499 5.65039 9.17798 5.52018 9.09105C5.04274 8.77298 4.65126 8.34191 4.38051 7.83614C4.10975 7.33036 3.96812 6.76554 3.96818 6.19185C3.96818 5.92305 3.97298 5.68465 3.98898 5.46705C6.22782 7.75183 9.24531 9.10919 12.4402 9.26865C12.5636 9.27493 12.6867 9.25255 12.8 9.20326C12.9132 9.15398 13.0136 9.07914 13.0931 8.98459C13.1726 8.89005 13.2291 8.77838 13.2583 8.65833C13.2874 8.53828 13.2883 8.41312 13.261 8.29265C13.1435 7.79306 13.1405 7.27335 13.2522 6.77243C13.364 6.27152 13.5876 5.80236 13.9063 5.40008C14.225 4.99781 14.6306 4.67282 15.0927 4.44946C15.5547 4.22609 16.0614 4.11013 16.5746 4.11025C18.549 4.11025 19.9922 5.93905 19.9922 8.00145C19.9922 13.2111 16.0306 19.1599 8.83218 19.1599H8.83378Z"
    fill="inherit" />
</svg>
